<svg width="19" height="22" viewBox="0 0 19 22" fill="none" xmlns="http://www.w3.org/2000/svg">
<g clip-path="url(#clip0_14_248)">
<path d="M11.8362 5.20395C12.6044 5.36695 13.3103 5.77553 13.8637 6.37742C14.4172 6.9793 14.7928 7.7471 14.9427 8.58253M11.8362 1.78259C13.4321 1.97542 14.9204 2.7527 16.0565 3.98681C17.1927 5.22092 17.9092 6.83851 18.0885 8.57398M17.3021 15.3996V17.9656C17.303 18.2038 17.2581 18.4396 17.1704 18.6579C17.0826 18.8761 16.9539 19.0721 16.7925 19.2331C16.6311 19.3941 16.4406 19.5167 16.2331 19.5931C16.0256 19.6694 15.8057 19.6977 15.5876 19.6763C13.1675 19.3903 10.8429 18.4909 8.80046 17.0504C6.90024 15.7372 5.28918 13.985 4.0817 11.9184C2.75257 9.68695 1.92542 7.14642 1.66727 4.50257C1.64762 4.26604 1.67347 4.02765 1.74317 3.80258C1.81287 3.57751 1.92489 3.37069 2.07211 3.19529C2.21934 3.01989 2.39853 2.87974 2.59828 2.78379C2.79803 2.68783 3.01396 2.63816 3.23233 2.63793H5.5917C5.97338 2.63385 6.3434 2.78084 6.63279 3.05152C6.92218 3.32219 7.11121 3.69808 7.16462 4.10911C7.26421 4.9303 7.44889 5.73659 7.71515 6.51262C7.82096 6.81876 7.84386 7.15148 7.78113 7.47135C7.71841 7.79121 7.57269 8.08482 7.36124 8.31738L6.36244 9.40366C7.482 11.545 9.11225 13.3181 11.0812 14.5357L12.08 13.4494C12.2938 13.2194 12.5638 13.061 12.8579 12.9927C13.152 12.9245 13.4579 12.9494 13.7394 13.0645C14.453 13.3541 15.1943 13.5549 15.9494 13.6632C16.3314 13.7219 16.6803 13.9311 16.9297 14.2513C17.1791 14.5714 17.3117 14.9801 17.3021 15.3996Z" stroke="white" stroke-width="1.5" stroke-linecap="round" stroke-linejoin="round"/>
</g>
<defs>
<clipPath id="clip0_14_248">
<path d="M0 10.3647C0 5.15256 4.22532 0.927246 9.43751 0.927246C14.6497 0.927246 18.875 5.15256 18.875 10.3647V12.0179C18.875 17.2301 14.6497 21.4554 9.43751 21.4554C4.22532 21.4554 0 17.23 0 12.0179V10.3647Z" fill="white"/>
</clipPath>
</defs>
</svg>
