<svg width="21" height="21" viewBox="0 0 21 21" fill="none" xmlns="http://www.w3.org/2000/svg">
<path d="M17.2455 18.556H17.1392C4.85796 17.8497 3.1142 7.48722 2.87045 4.32472C2.85081 4.07883 2.87989 3.83148 2.956 3.59685C3.03212 3.36222 3.15378 3.14491 3.31403 2.95738C3.47427 2.76984 3.66995 2.61577 3.88984 2.50399C4.10973 2.39221 4.34951 2.32492 4.59546 2.30597H8.03921C8.28955 2.30573 8.53421 2.38066 8.74148 2.52107C8.94874 2.66148 9.10908 2.86089 9.20171 3.09347L10.1517 5.43097C10.2432 5.65819 10.2659 5.90727 10.217 6.14728C10.1681 6.38728 10.0498 6.60764 9.87671 6.78097L8.54546 8.12472C8.7534 9.30644 9.31932 10.3958 10.1666 11.2453C11.014 12.0949 12.1018 12.6637 13.283 12.8747L14.6392 11.531C14.8151 11.3598 15.0376 11.2443 15.2788 11.1987C15.5199 11.1531 15.7692 11.1796 15.9955 11.2747L18.3517 12.2185C18.5808 12.314 18.7762 12.4756 18.9131 12.6826C19.05 12.8897 19.1222 13.1328 19.1205 13.381V16.681C19.1205 17.1783 18.9229 17.6552 18.5713 18.0068C18.2197 18.3584 17.7427 18.556 17.2455 18.556ZM4.74546 3.55597C4.57969 3.55597 4.42072 3.62182 4.30351 3.73903C4.1863 3.85624 4.12046 4.01521 4.12046 4.18097V4.23097C4.40796 7.93097 6.25171 16.681 17.208 17.306C17.2901 17.311 17.3724 17.2999 17.4501 17.2731C17.5279 17.2463 17.5996 17.2044 17.6612 17.1498C17.7227 17.0952 17.7729 17.029 17.8088 16.955C17.8447 16.881 17.8657 16.8006 17.8705 16.7185V13.381L15.5142 12.4372L13.7205 14.2185L13.4205 14.181C7.98296 13.4997 7.24546 8.06222 7.24546 8.00597L7.20796 7.70597L8.98296 5.91222L8.04546 3.55597H4.74546Z" fill="white"/>
</svg>
