<svg width="28" height="30" viewBox="0 0 28 30" fill="none" xmlns="http://www.w3.org/2000/svg">
<g clip-path="url(#clip0_14_264)">
<path d="M10.2327 18.4853L9.84243 25.5653C10.4008 25.5653 10.6427 25.2559 10.9327 24.8844L13.5507 21.6576L18.9755 26.7812C19.9704 27.4963 20.6713 27.1197 20.9397 25.6008L24.5005 4.08183L24.5015 4.08057C24.8171 2.18378 23.9696 1.44205 23.0003 1.90737L2.06999 12.2421C0.641542 12.9572 0.66317 13.9842 1.82717 14.4495L7.17821 16.5961L19.6076 6.56567C20.1926 6.06611 20.7244 6.34251 20.2869 6.84207L10.2327 18.4853Z" fill="white"/>
</g>
<defs>
<clipPath id="clip0_14_264">
<path d="M0.974884 10.9272C0.974884 5.40439 5.45204 0.927246 10.9749 0.927246H17.3999C22.9227 0.927246 27.3999 5.4044 27.3999 10.9272V19.6666C27.3999 25.1895 22.9227 29.6666 17.3999 29.6666H10.9749C5.45203 29.6666 0.974884 25.1894 0.974884 19.6666V10.9272Z" fill="white"/>
</clipPath>
</defs>
</svg>
