<svg width="27" height="30" viewBox="0 0 27 30" fill="none" xmlns="http://www.w3.org/2000/svg">
<path d="M18.7182 3.32214H7.70781C4.66737 3.32214 2.20261 6.00278 2.20261 9.30951V21.2842C2.20261 24.591 4.66737 27.2716 7.70781 27.2716H18.7182C21.7586 27.2716 24.2234 24.591 24.2234 21.2842V9.30951C24.2234 6.00278 21.7586 3.32214 18.7182 3.32214Z" stroke="white" stroke-width="1.5" stroke-linecap="round" stroke-linejoin="round"/>
<path d="M17.6172 14.5425C17.7531 15.5391 17.5966 16.5569 17.1699 17.4512C16.7433 18.3455 16.0682 19.0706 15.2407 19.5236C14.4133 19.9766 13.4756 20.1342 12.561 19.9742C11.6464 19.8141 10.8015 19.3445 10.1465 18.6321C9.49143 17.9197 9.05962 17.0008 8.91245 16.0061C8.76528 15.0114 8.91024 13.9915 9.32672 13.0916C9.7432 12.1917 10.41 11.4575 11.2322 10.9935C12.0545 10.5295 12.9904 10.3592 13.9067 10.507C14.8414 10.6578 15.7067 11.1315 16.3749 11.8581C17.043 12.5848 17.4786 13.5259 17.6172 14.5425Z" stroke="white" stroke-width="1.5" stroke-linecap="round" stroke-linejoin="round"/>
<path d="M19.2687 8.71082H19.2804" stroke="white" stroke-width="1.5" stroke-linecap="round" stroke-linejoin="round"/>
</svg>
