<svg width="27" height="30" viewBox="0 0 27 30" fill="none" xmlns="http://www.w3.org/2000/svg">
<g clip-path="url(#clip0_14_254)">
<path d="M25.8124 4.51961C24.758 5.32847 23.5906 5.94713 22.3551 6.35174C21.692 5.52251 20.8107 4.93476 19.8304 4.66801C18.8502 4.40125 17.8182 4.46835 16.8742 4.86023C15.9301 5.25212 15.1195 5.94987 14.552 6.85913C13.9844 7.76839 13.6874 8.84528 13.7009 9.94416V11.1416C11.766 11.1962 9.84866 10.7295 8.11973 9.78303C6.39081 8.83659 4.90393 7.43981 3.79153 5.71708C3.79153 5.71708 -0.612636 16.4943 9.29674 21.2842C7.02917 22.9582 4.32791 23.7976 1.58945 23.6792C11.4988 29.6665 23.6103 23.6792 23.6103 9.90823C23.6093 9.57468 23.5798 9.24195 23.5222 8.91433C24.6459 7.70907 25.4389 6.18734 25.8124 4.51961Z" stroke="white" stroke-width="1.5" stroke-linecap="round" stroke-linejoin="round"/>
</g>
<defs>
<clipPath id="clip0_14_254">
<path d="M0.488403 10.9272C0.488403 5.40439 4.96556 0.927246 10.4884 0.927246H16.9134C22.4362 0.927246 26.9134 5.4044 26.9134 10.9272V19.6666C26.9134 25.1895 22.4362 29.6666 16.9134 29.6666H10.4884C4.96555 29.6666 0.488403 25.1894 0.488403 19.6666V10.9272Z" fill="white"/>
</clipPath>
</defs>
</svg>
