<svg width="27" height="30" viewBox="0 0 27 30" fill="none" xmlns="http://www.w3.org/2000/svg">
<g clip-path="url(#clip0_14_256)">
<path d="M25.0617 8.61505C24.9309 8.04674 24.6645 7.52603 24.2895 7.10552C23.9144 6.68501 23.444 6.37959 22.9257 6.2201C21.0319 5.71716 13.4567 5.71716 13.4567 5.71716C13.4567 5.71716 5.88155 5.71716 3.98776 6.268C3.46944 6.42749 2.999 6.73291 2.62395 7.15342C2.24891 7.57393 1.98253 8.09464 1.85174 8.66295C1.50515 10.7532 1.33561 12.8736 1.34526 14.9976C1.33291 17.1375 1.50246 19.2741 1.85174 21.3801C1.99593 21.9308 2.26827 22.4317 2.64245 22.8344C3.01662 23.2372 3.47998 23.5282 3.98776 23.6793C5.88155 24.2301 13.4567 24.2301 13.4567 24.2301C13.4567 24.2301 21.0319 24.2301 22.9257 23.6793C23.444 23.5198 23.9144 23.2144 24.2895 22.7939C24.6645 22.3733 24.9309 21.8526 25.0617 21.2843C25.4056 19.2098 25.5751 17.1055 25.5682 14.9976C25.5805 12.8576 25.411 10.721 25.0617 8.61505V8.61505Z" stroke="white" stroke-width="1.5" stroke-linecap="round" stroke-linejoin="round"/>
<path d="M10.9794 18.9133L17.3103 14.9975L10.9794 11.0818V18.9133Z" stroke="white" stroke-width="1.5" stroke-linecap="round" stroke-linejoin="round"/>
</g>
<defs>
<clipPath id="clip0_14_256">
<path d="M0.244202 10.9272C0.244202 5.40439 4.72135 0.927246 10.2442 0.927246H16.6692C22.192 0.927246 26.6692 5.4044 26.6692 10.9272V19.6666C26.6692 25.1895 22.192 29.6666 16.6692 29.6666H10.2442C4.72135 29.6666 0.244202 25.1894 0.244202 19.6666V10.9272Z" fill="white"/>
</clipPath>
</defs>
</svg>
